<svg width="200" height="200" viewBox="0 0 64 64" fill="none" xmlns="http://www.w3.org/2000/svg">
  <rect x="8" y="4" width="40" height="56" rx="4" fill="#E53935"></rect>
  <path d="M12 12H36V16H12V12ZM12 20H36V24H12V20ZM12 28H36V32H12V28Z" fill="white"></path>
  <rect x="16" y="40" width="24" height="12" rx="2" fill="white"></rect>
  <text x="18" y="49" font-size="8" font-family="Arial, sans-serif" fill="#E53935" font-weight="bold">PDF</text>

  <path d="M48 20H54C55.1046 20 56 20.8954 56 22V50C56 51.1046 55.1046 52 54 52H20C18.8954 52 18 51.1046 18 50V44" stroke="#333" stroke-width="2"></path>
  <line x1="22" y1="36" x2="50" y2="36" stroke="#fff" stroke-width="2"></line>
  <line x1="22" y1="42" x2="50" y2="42" stroke="#fff" stroke-width="2"></line>
  <line x1="22" y1="48" x2="44" y2="48" stroke="#fff" stroke-width="2"></line>
</svg>
